<?xml version="1.0" standalone="no"?>
<!DOCTYPE svg PUBLIC "-//W3C//DTD SVG 20010904//EN"
 "http://www.w3.org/TR/2001/REC-SVG-20010904/DTD/svg10.dtd">
<svg version="1.0" xmlns="http://www.w3.org/2000/svg"
 width="535.000000pt" height="535.000000pt" viewBox="0 0 535.000000 535.000000"
 preserveAspectRatio="xMidYMid meet">
<metadata>
Created by potrace 1.14, written by Peter Selinger 2001-2017
</metadata>
<g transform="translate(0.000000,535.000000) scale(0.100000,-0.100000)"
fill="#000000" stroke="none">
<path d="M836 5098 c25 -127 29 -149 38 -208 3 -19 8 -46 11 -60 10 -49 54
-286 59 -315 2 -16 5 -30 6 -30 1 0 3 -11 4 -25 3 -23 40 -237 52 -292 2 -13
6 -38 9 -55 2 -18 6 -48 9 -65 3 -18 8 -50 11 -72 3 -21 7 -41 9 -45 2 -3 7
-28 10 -56 3 -27 8 -61 10 -75 28 -161 61 -430 53 -430 -3 0 -12 6 -19 13 -7
6 -38 30 -68 53 -136 102 -317 309 -432 496 -33 54 -62 98 -64 98 -21 0 167
-379 285 -575 30 -49 76 -122 102 -162 26 -40 50 -80 53 -90 3 -10 17 -30 31
-45 14 -16 22 -28 18 -28 -4 0 -3 -4 2 -8 13 -9 105 -129 105 -136 0 -3 9 -15
20 -26 11 -11 20 -32 21 -47 0 -16 2 -37 5 -48 8 -44 17 -112 18 -142 0 -18 3
-33 6 -33 3 0 6 -18 7 -39 1 -21 4 -54 7 -72 4 -19 9 -54 11 -79 3 -25 7 -58
10 -75 7 -42 15 -112 20 -165 2 -25 7 -63 10 -85 3 -23 8 -63 10 -90 3 -28 7
-68 10 -90 2 -22 7 -67 10 -100 19 -210 25 -259 35 -265 4 -3 7 -39 6 -80 -1
-41 3 -118 8 -170 10 -112 12 -136 21 -255 4 -49 8 -103 10 -120 1 -16 5 -77
9 -135 4 -58 9 -121 11 -140 2 -19 7 -82 10 -140 3 -58 8 -121 10 -140 5 -41
13 -150 21 -275 2 -50 7 -99 9 -110 2 -11 4 -23 4 -26 1 -4 39 -6 86 -6 46 0
87 -2 91 -5 3 -4 16 -3 28 1 11 4 51 6 88 6 54 -2 69 1 72 14 5 17 13 91 21
186 3 33 7 76 10 95 2 19 9 73 15 120 6 47 13 99 16 115 3 17 10 55 15 85 6
30 12 66 14 80 4 24 13 64 19 85 2 6 7 24 11 40 9 33 84 197 94 205 3 3 22 29
41 57 19 29 38 53 41 53 4 0 1 -18 -7 -39 -7 -22 -16 -53 -19 -68 -2 -15 -14
-59 -25 -98 -12 -38 -23 -77 -25 -85 -2 -8 -11 -44 -20 -80 -22 -90 -24 -101
-31 -135 -2 -16 -10 -48 -16 -70 -5 -22 -12 -51 -15 -65 -2 -14 -10 -53 -18
-88 -8 -34 -17 -76 -20 -92 -3 -17 -8 -45 -11 -62 -7 -37 -9 -53 -19 -123 -4
-27 -10 -67 -15 -88 -7 -34 -6 -38 16 -43 13 -3 39 -3 57 0 30 6 34 10 35 42
1 19 4 38 6 43 3 4 8 30 11 57 4 27 11 68 16 92 5 23 12 59 15 78 7 47 5 38
54 254 23 102 44 196 46 209 3 14 7 28 10 33 5 7 7 17 17 63 2 6 6 16 10 22 5
7 6 13 3 13 -3 0 -1 11 4 26 6 14 12 37 15 52 6 38 82 289 92 306 8 13 117
106 183 156 18 14 38 30 44 35 6 6 45 37 86 69 41 33 82 66 90 73 8 8 40 32
70 55 30 22 66 49 80 59 14 11 75 55 135 99 61 44 119 86 130 94 11 8 72 51
135 96 63 44 123 87 133 95 9 8 20 15 23 15 3 0 25 15 48 33 24 17 54 39 66
47 12 8 28 20 34 26 6 6 18 15 27 20 17 10 36 24 196 152 94 75 136 109 167
137 6 6 38 33 71 60 33 28 67 57 76 65 33 32 84 76 90 79 4 2 36 31 71 65 35
33 97 90 137 126 40 36 92 83 115 105 47 45 245 227 255 235 3 3 17 18 31 34
18 22 10 18 -30 -15 -90 -73 -82 -66 -150 -119 -25 -19 -49 -38 -55 -43 -5 -4
-39 -30 -75 -58 -36 -27 -76 -59 -88 -69 -13 -11 -26 -20 -29 -20 -3 0 -19
-11 -37 -25 -17 -14 -35 -29 -41 -33 -16 -13 -253 -176 -279 -192 -14 -8 -58
-36 -99 -63 -41 -26 -79 -47 -85 -47 -6 0 -12 -4 -14 -8 -4 -11 -149 -93 -254
-144 -103 -50 -272 -115 -349 -134 -5 -2 -66 -17 -135 -34 -69 -17 -136 -33
-150 -37 -14 -3 -32 -7 -40 -8 -66 -11 -97 -17 -110 -20 -8 -3 -43 -7 -78 -11
-62 -6 -62 -6 -53 18 46 117 160 375 234 528 17 36 32 67 32 70 1 7 98 198
163 320 62 117 238 427 256 450 6 8 20 31 30 50 11 19 82 129 158 243 76 115
138 210 138 212 0 2 16 30 35 62 37 61 44 93 22 93 -35 0 -282 -322 -442 -575
-24 -38 -49 -75 -55 -82 -5 -7 -10 -15 -10 -18 0 -4 -31 -56 -110 -185 -27
-44 -150 -275 -150 -282 0 -4 -4 -8 -10 -8 -5 0 -10 -4 -10 -10 0 -5 -41 -92
-91 -192 -50 -101 -113 -235 -141 -298 -28 -63 -61 -138 -74 -167 -13 -28 -24
-54 -24 -56 0 -3 -10 -26 -22 -53 -12 -27 -23 -57 -25 -66 -5 -30 -42 -82 -60
-84 -9 -2 -45 -6 -80 -9 -34 -3 -72 -8 -84 -10 -13 -3 -41 -7 -64 -10 -111
-16 -203 -57 -277 -124 -27 -24 -51 -41 -54 -39 -5 5 52 59 98 93 28 20 34 42
44 155 2 25 6 63 8 85 6 45 16 212 19 293 1 28 -1 52 -5 52 -3 0 -4 8 -2 18 6
21 -28 134 -47 157 -15 17 -37 38 -71 67 -11 9 -52 29 -91 43 -40 15 -91 34
-115 43 l-44 17 -4 85 c-2 47 -6 126 -9 175 -3 50 -8 126 -10 170 -9 144 -14
218 -30 440 -6 78 -13 159 -20 220 -11 107 -16 152 -20 180 -9 67 -35 234 -45
285 -6 30 -13 66 -16 80 -9 47 -37 135 -47 145 -9 9 -5 -50 7 -125 11 -64 26
-170 31 -220 4 -30 8 -66 10 -80 3 -21 8 -69 20 -200 1 -14 6 -61 10 -105 20
-206 29 -342 40 -625 10 -257 11 -380 5 -389 -5 -9 -115 39 -260 113 l-85 44
-32 173 c-17 96 -34 185 -36 199 -3 14 -14 77 -26 140 -11 63 -25 140 -31 170
-6 30 -13 69 -16 85 -3 17 -14 75 -25 130 -11 55 -22 111 -24 125 -2 14 -6 34
-9 45 -7 29 -33 145 -56 250 -11 50 -24 108 -30 130 -6 22 -13 51 -16 65 -6
30 -12 50 -62 210 -41 131 -81 230 -92 230 -4 0 3 -55 16 -122z m554 -2457 c0
-6 12 -23 26 -38 14 -15 33 -41 42 -58 8 -16 20 -34 27 -40 18 -16 65 -83 65
-93 0 -6 4 -12 8 -14 5 -1 20 -20 34 -41 21 -31 25 -47 22 -90 -2 -29 -5 -109
-8 -180 -3 -70 -8 -132 -11 -137 -3 -6 -2 -10 4 -10 6 0 8 -6 6 -12 -2 -7 -6
-138 -9 -291 -2 -153 -6 -280 -8 -283 -5 -4 -30 108 -48 216 -6 36 -13 76 -16
90 -3 14 -7 41 -9 60 -3 19 -7 46 -9 60 -2 14 -7 48 -11 75 -3 28 -8 61 -11
75 -2 14 -6 41 -9 60 -8 56 -14 93 -19 120 -3 14 -7 43 -10 65 -11 79 -17 122
-32 215 -9 52 -18 111 -20 130 -2 19 -7 56 -12 83 -5 26 -6 47 -1 47 5 0 9 -4
9 -9z m394 -592 c25 -47 43 -89 39 -92 -3 -4 -1 -7 5 -7 6 0 21 20 33 45 13
25 29 45 38 45 14 -1 14 -2 1 -13 -32 -26 -75 -124 -86 -197 -2 -14 -6 -36 -9
-50 -6 -26 -11 -154 -16 -433 -1 -92 -6 -170 -11 -173 -4 -3 -8 7 -9 23 0 15
-2 37 -3 48 -14 104 -20 163 -32 340 -3 50 -7 113 -9 140 -3 43 -9 165 -18
398 -3 57 -2 57 15 35 9 -13 37 -62 62 -109z"/>
</g>
</svg>
